<?xml version="1.0" encoding="utf-8"?>
<!-- Generator: Adobe Illustrator 16.0.0, SVG Export Plug-In . SVG Version: 6.00 Build 0)  -->
<!DOCTYPE svg PUBLIC "-//W3C//DTD SVG 1.1//EN" "http://www.w3.org/Graphics/SVG/1.1/DTD/svg11.dtd">
<svg version="1.1" id="Layer_1" xmlns="http://www.w3.org/2000/svg" xmlns:xlink="http://www.w3.org/1999/xlink" x="0px" y="0px"
	 width="400px" height="400px" viewBox="0 0 400 400" style="enable-background:new 0 0 400 400;" xml:space="preserve">
<g>
	<circle style="fill:#1472a4;" cx="190.5" cy="103.5" r="30.1"/>
	<path style="fill:#1472a4;" d="M241.4,263.2c-6.9,25.6-30.3,44.3-58.1,44.3c-33.3,0-60.2-27-60.2-60.3c0-27.3,17.9-50.3,42.9-57.8
		v-19.9c-36,7.9-62.2,39.6-62.2,77.6c0,43.9,35.6,79.6,79.5,79.6c28.2,0,53-14.6,67.1-36.6L241.4,263.2z"/>
	<path style="fill:#1472a4;" d="M191,140h-2.5c-9.8,0-17.5,8.1-17.5,17.7v58c0,9.6,7.8,17.3,17.5,17.3h47.1l21.4,58.8
		c1.8,5.4,7.3,8.4,12.8,7.3l0-0.1h0c0.4,0,16-5.4,16-5.4c5.9-1.9,11.9-3.3,10-9.2l0,0c-1.9-5.9-7-7.7-14.1-7.1l-5.8,0.3L257,215.6
		c-1.7-3.3-5-5.6-9.1-5.6h-38v-24.1l29.1-0.1c3.7,0,6.6-2.7,6.6-5.9l-0.1-6.4c0-3.2-3-5.8-6.7-5.8l-28.9,0.1v-10.1
		c0-9.6-9.1-17.7-18.8-17.7"/>
</g>
</svg>
