<?xml version="1.0" standalone="no"?>
<!DOCTYPE svg PUBLIC "-//W3C//DTD SVG 20010904//EN"
 "http://www.w3.org/TR/2001/REC-SVG-20010904/DTD/svg10.dtd">
<svg version="1.0" xmlns="http://www.w3.org/2000/svg"
 width="2000.000000pt" height="1250.000000pt" viewBox="0 0 2000.000000 1250.000000"
 preserveAspectRatio="xMidYMid meet">

<g transform="translate(0.000000,1250.000000) scale(0.100000,-0.100000)"
fill="#000000" stroke="none">
<path d="M16015 8624 c-108 -40 -151 -140 -104 -243 l20 -45 -22 20 -22 19 7
-29 c19 -77 75 -106 165 -87 29 6 87 11 129 11 92 0 131 -19 162 -80 11 -22
22 -40 25 -40 2 0 19 9 38 20 51 30 67 11 67 -79 0 -84 17 -106 49 -66 71 91
103 348 57 457 -34 80 -99 114 -244 128 -54 5 -119 14 -143 19 -61 14 -137 12
-184 -5z"/>
<path d="M3814 8347 c-177 -59 -327 -159 -365 -242 -38 -82 -20 -185 48 -279
92 -127 167 -196 214 -196 22 0 29 6 39 34 9 28 7 42 -10 86 -12 29 -20 65
-18 79 3 24 7 26 48 26 25 0 50 3 56 7 6 4 14 30 17 57 14 115 49 141 171 123
45 -7 98 -12 117 -12 40 0 139 27 139 38 0 4 -27 27 -61 52 -43 31 -76 67
-114 125 -29 45 -66 90 -82 100 -43 29 -116 29 -199 2z"/>
<path d="M8550 8131 c-54 -17 -90 -43 -145 -103 -150 -166 -333 -549 -390
-818 -9 -41 -16 -118 -17 -171 0 -80 4 -105 23 -145 l22 -49 7 40 c11 68 49
123 104 152 16 9 77 22 135 29 58 8 120 19 137 24 43 14 79 56 98 113 22 66
38 225 25 249 -5 10 -12 47 -16 82 l-6 63 53 7 c29 4 70 16 90 26 51 26 120
106 161 185 19 36 40 65 47 65 25 0 90 -78 107 -130 34 -103 2 -340 -56 -414
-15 -19 -30 -26 -54 -26 -31 0 -33 -2 -39 -44 -15 -99 31 -176 121 -202 l55
-16 44 -93 c24 -51 60 -144 80 -206 20 -63 38 -116 40 -118 6 -7 103 38 149
69 139 96 132 235 -21 425 -59 73 -103 152 -124 220 -7 22 -16 121 -20 220 -7
157 -11 190 -34 256 -52 149 -154 263 -261 294 -59 16 -279 28 -315 16z"/>
<path d="M14330 8104 c-187 -32 -271 -81 -324 -189 -52 -107 -56 -191 -24
-482 20 -180 21 -208 9 -265 -8 -35 -16 -74 -19 -87 -4 -21 -2 -23 19 -18 13
4 65 14 114 23 50 8 93 18 97 22 10 11 22 157 14 186 -5 22 -12 26 -35 24 -50
-4 -76 30 -104 137 -8 33 -18 77 -22 98 -6 37 -6 37 29 37 48 0 66 9 77 36 7
19 16 24 44 24 28 0 35 -4 35 -20 0 -25 29 -40 79 -40 26 0 48 7 59 18 17 17
25 17 81 8 l63 -10 -6 -61 c-17 -158 -17 -188 -6 -252 16 -95 46 -159 78 -171
15 -6 58 -16 97 -22 157 -26 219 -66 313 -203 41 -61 48 -66 59 -51 18 25 26
77 21 139 -3 41 -14 68 -46 117 -54 83 -74 137 -112 299 -85 368 -116 457
-187 550 -43 56 -117 108 -188 133 -51 17 -169 28 -215 20z m-125 -271 c22
-57 40 -89 74 -125 l25 -28 -32 0 c-18 0 -32 -4 -32 -10 0 -5 -18 -10 -40 -10
-22 0 -40 5 -40 10 0 6 -16 10 -35 10 -40 0 -41 3 -22 77 12 45 60 120 78 122
4 1 14 -20 24 -46z"/>
<path d="M5359 7950 c25 -5 49 -14 54 -19 5 -5 -12 -4 -37 2 -70 16 -106 1
-134 -55 -15 -30 -24 -66 -25 -101 -1 -45 4 -62 33 -106 40 -64 69 -84 104
-75 25 6 25 5 15 -28 -16 -51 -13 -177 5 -227 34 -92 97 -146 156 -135 24 5
36 1 57 -17 l26 -24 -7 35 c-4 19 -9 60 -12 91 -7 63 -9 61 71 74 22 4 51 13
63 22 40 25 37 5 -7 -47 -23 -27 -40 -50 -38 -50 2 0 21 13 41 29 32 26 41 29
64 20 38 -14 93 -2 99 22 3 10 10 19 15 19 5 0 3 7 -6 15 -8 8 -29 15 -46 15
-17 0 -30 3 -28 8 2 4 17 34 34 67 17 33 37 77 43 98 7 20 16 37 19 37 19 0
67 -80 79 -129 17 -76 17 -81 -12 -81 -14 0 -25 -5 -25 -11 0 -6 -10 -8 -22
-5 l-23 6 23 -11 c12 -7 22 -18 22 -25 0 -33 81 -41 118 -12 16 14 16 47 -1
54 -9 3 -12 24 -9 74 2 38 1 82 -3 97 -9 38 -147 176 -232 233 -96 64 -163 80
-227 51 l-45 -20 -22 35 c-28 46 -88 75 -163 80 -60 3 -60 3 -17 -6z"/>
<path d="M16496 7595 c-286 -172 -468 -455 -543 -845 -33 -172 -28 -1341 8
-1687 l12 -112 71 -17 c39 -9 130 -19 201 -21 158 -6 284 12 434 63 102 34
291 125 312 150 7 9 -8 183 -50 581 -34 312 -61 578 -61 591 0 20 3 18 34 -16
30 -33 51 -86 149 -383 l114 -344 71 -3 c55 -2 82 2 121 19 50 21 50 21 46 63
-3 22 -9 88 -15 146 -32 311 -74 488 -175 729 -172 412 -317 711 -422 870 -61
91 -210 251 -235 251 -8 0 -40 -16 -72 -35z"/>
<path d="M16120 7533 c-94 -68 -189 -167 -257 -271 -65 -99 -99 -172 -168
-365 -105 -294 -273 -656 -341 -735 -27 -32 -53 -47 -134 -77 -55 -21 -97 -42
-93 -46 5 -3 40 -17 78 -29 104 -34 192 -79 246 -128 l48 -43 37 16 c20 8 38
14 39 13 1 -2 -8 -93 -21 -203 -25 -222 -44 -471 -44 -570 l0 -64 38 -10 c59
-16 178 -33 209 -29 l28 3 -12 164 c-10 131 -16 166 -30 176 -15 11 -16 35 -9
261 12 456 36 948 52 1084 53 469 159 722 347 836 31 20 57 42 57 50 0 8 -1
14 -3 14 -2 0 -32 -21 -67 -47z"/>
<path d="M10650 6722 c-135 -45 -196 -101 -229 -207 -12 -37 -21 -75 -21 -84
0 -32 -41 -176 -64 -226 -12 -27 -44 -75 -71 -105 -83 -96 -94 -152 -47 -241
18 -34 46 -68 77 -91 l49 -37 33 25 c50 38 118 65 197 78 l71 12 18 49 c21 57
38 203 26 227 -5 9 -9 41 -9 70 l0 54 69 17 c104 27 177 85 225 180 l25 49 25
-25 c40 -40 68 -107 73 -172 6 -72 -17 -190 -49 -254 -20 -41 -27 -46 -60 -49
-35 -3 -37 -5 -44 -48 -9 -65 4 -154 24 -160 9 -3 40 -14 67 -25 l50 -20 48
52 c62 67 89 121 89 179 0 51 -10 77 -54 130 -15 19 -28 38 -28 43 0 5 20 49
45 99 38 76 45 100 45 148 0 68 -19 98 -133 208 -104 100 -180 135 -302 139
-67 2 -104 -2 -145 -15z"/>
<path d="M14823 5947 l-63 -21 0 -73 c0 -83 -8 -92 -93 -114 -43 -10 -79 -39
-89 -71 -6 -18 -50 -2 -83 30 -29 28 -35 29 -145 35 -63 3 -157 15 -207 27
-51 12 -96 21 -99 21 -11 0 -104 -241 -135 -351 -49 -176 -89 -555 -194 -1848
l-6 -72 44 -19 c95 -41 194 -56 362 -55 298 1 708 81 1049 205 l88 32 -6 61
c-36 335 -223 1443 -272 1614 -27 95 -101 255 -157 342 l-36 55 87 6 c48 4
125 8 172 9 47 1 96 5 109 9 22 6 19 9 -35 45 -33 22 -94 66 -136 98 -42 32
-80 58 -85 57 -4 0 -36 -10 -70 -22z"/>
<path d="M8286 5894 c-3 -9 -6 -33 -6 -54 l0 -38 93 -16 c203 -36 449 -57 460
-39 3 5 -26 17 -67 27 -79 18 -189 66 -221 96 -14 13 -47 22 -117 29 -126 14
-135 14 -142 -5z"/>
<path d="M10133 5756 c10 -14 17 -31 17 -39 0 -9 10 -12 34 -9 33 4 36 1 59
-44 l24 -48 16 31 c15 28 15 34 0 72 -17 44 -20 45 -112 56 l-54 6 16 -25z"/>
<path d="M9526 5753 c4 -10 9 -40 11 -68 1 -29 25 -118 57 -210 30 -88 122
-369 204 -625 l149 -465 -29 -33 c-24 -28 -28 -41 -28 -92 0 -57 1 -59 28 -62
l27 -3 3 -326 2 -326 -76 -12 c-321 -52 -569 -280 -649 -596 -24 -94 -24 -275
-1 -370 39 -156 142 -320 264 -421 103 -85 269 -159 397 -177 17 -2 -135 -5
-337 -6 -348 -1 -367 0 -372 17 -12 36 -53 62 -129 82 -43 10 -97 28 -121 39
-53 23 -120 82 -135 119 -11 26 -15 27 -74 27 -47 0 -75 6 -113 25 l-52 26 -6
-101 c-6 -90 -4 -146 10 -212 l4 -23 -265 0 c-257 0 -265 1 -265 20 0 14 -16
27 -57 47 -73 35 -105 90 -104 180 0 32 -3 90 -5 130 l-6 71 -34 6 c-51 10
-101 33 -124 58 l-20 22 -45 -49 c-56 -63 -89 -128 -81 -159 3 -13 33 -57 66
-98 37 -45 62 -86 66 -108 8 -41 27 -82 49 -104 15 -15 4 -16 -134 -16 -83 0
-151 1 -151 3 0 4 -28 143 -309 1526 -128 628 -227 1139 -223 1143 5 5 -5 79
-22 166 -30 150 -33 157 -56 160 -55 5 -56 -3 -20 -177 19 -90 38 -161 44
-161 7 0 29 -88 53 -207 23 -115 143 -707 267 -1317 125 -610 226 -1115 226
-1123 0 -11 -111 -13 -623 -13 l-623 0 -11 29 c-8 23 -21 32 -65 45 -30 8 -69
26 -86 38 -17 13 -67 48 -111 78 -55 38 -82 63 -85 80 -11 51 -26 287 -26 414
0 322 41 578 141 881 121 365 186 630 234 955 15 100 45 406 45 461 l0 25 -72
-24 c-132 -45 -484 -41 -578 7 -42 21 -82 75 -114 155 -25 61 -27 60 -41 -14
-9 -45 -37 -100 -63 -124 -18 -15 -34 -18 -101 -15 l-80 4 -7 -85 c-16 -198
11 -808 51 -1139 l16 -125 -34 -55 c-78 -126 -117 -231 -152 -404 -38 -190
-95 -651 -109 -876 -3 -46 -10 -89 -15 -94 -6 -6 -11 -25 -11 -41 0 -17 -7
-64 -17 -103 l-17 -73 -107 0 c-74 0 -119 5 -141 15 -18 8 -72 24 -120 35
-137 31 -228 84 -265 153 -10 19 -11 32 -4 41 10 12 39 338 146 1631 87 1053
123 1510 119 1514 -2 2 -65 -13 -141 -32 -289 -75 -536 -91 -778 -48 -71 13
-151 31 -177 41 -27 10 -50 15 -52 12 -14 -24 -58 -188 -80 -297 -37 -186 -57
-357 -101 -855 -24 -267 -39 -340 -90 -445 -51 -101 -76 -193 -102 -363 -15
-99 -18 -180 -17 -527 1 -225 5 -448 10 -495 6 -58 5 -112 -3 -170 -6 -47 -12
-113 -12 -147 l-1 -63 -832 -2 c-733 -3 -833 -5 -833 -18 0 -13 973 -15 8683
-18 8677 -2 8682 -2 8682 18 0 20 -7 20 -581 20 l-580 0 19 27 c11 16 27 54
36 85 11 38 31 74 62 110 94 110 94 142 -4 252 l-32 37 -28 -19 c-15 -11 -59
-36 -98 -55 l-72 -36 -4 -108 c-5 -145 -26 -191 -105 -228 -32 -16 -57 -35
-60 -46 -5 -18 -21 -19 -468 -19 l-463 0 5 79 c3 43 3 89 0 102 -6 22 -11 24
-59 21 -34 -2 -77 4 -118 17 -60 19 -66 20 -75 4 -45 -75 -139 -133 -255 -159
-42 -10 -83 -26 -100 -40 l-28 -24 -348 1 c-305 0 -344 2 -307 14 57 17 129
64 178 116 22 22 76 65 121 94 80 52 124 95 124 121 0 8 -13 28 -28 45 l-28
32 -86 -100 c-92 -107 -151 -151 -236 -179 -43 -13 -62 -27 -93 -66 -44 -56
-46 -65 -21 -71 9 -3 -309 -5 -708 -5 l-725 -1 90 20 c50 10 125 19 167 19
118 0 150 21 140 91 -5 37 -16 37 -128 -2 -106 -36 -218 -47 -301 -30 -53 11
-63 11 -115 -9 -33 -12 -58 -28 -58 -35 0 -16 31 -35 75 -46 17 -4 -56 -7
-161 -8 l-192 -1 38 183 c21 100 154 754 295 1452 162 801 263 1274 271 1281
13 10 78 293 70 302 -2 2 -7 -6 -11 -17 -3 -12 -23 -42 -44 -68 -41 -53 -92
-190 -73 -202 7 -4 -42 -265 -149 -791 -88 -432 -214 -1050 -280 -1375 -66
-324 -127 -625 -136 -669 -13 -66 -14 -79 -2 -87 8 -5 -294 -9 -720 -9 l-734
0 44 23 c62 33 91 86 86 155 -4 60 -26 95 -81 131 -36 24 -37 26 -34 80 l3 56
260 1 c143 0 380 1 528 2 l267 2 0 45 0 45 -73 0 c-61 0 -74 3 -84 20 -16 25
-58 46 -109 54 -29 5 -52 18 -79 46 -37 38 -39 38 -66 24 -36 -18 -68 -18 -89
1 -15 13 -20 13 -50 -1 -18 -9 -65 -19 -104 -22 -39 -3 -74 -10 -78 -16 -4 -6
-8 -32 -8 -59 l0 -48 -157 3 -158 3 -3 568 c-2 562 -2 567 18 567 18 0 20 7
20 68 0 49 -5 76 -20 100 -18 29 -20 50 -20 207 l0 175 70 0 c79 0 84 7 55 78
-20 47 -50 79 -97 103 -35 18 -68 19 -701 19 l-664 0 -5 68 c-2 37 0 112 4
167 4 55 12 258 17 450 7 224 15 375 24 419 l14 69 -304 -4 -305 -4 -46 102
c-26 56 -53 105 -61 108 -10 4 -11 1 -5 -12z m1660 -1563 l252 0 -5 -162 c-3
-90 -6 -164 -8 -166 -1 -1 -217 -3 -480 -2 l-477 0 -54 24 c-103 47 -197 171
-212 278 l-5 41 369 -6 c203 -4 482 -7 620 -7z m-1063 -361 c6 -22 1 -28 -38
-47 l-45 -22 1 158 1 157 37 -110 c21 -60 41 -122 44 -136z m-6403 -281 c22
-317 48 -538 90 -768 51 -277 129 -597 149 -609 7 -5 8 -42 4 -109 l-6 -102
-168 0 c-127 0 -176 4 -201 15 -18 8 -72 24 -120 35 -137 31 -228 84 -265 154
-13 26 -14 31 -1 40 9 6 53 150 102 326 198 714 380 1320 392 1307 3 -2 13
-132 24 -289z m7063 15 c25 -43 138 -240 252 -438 115 -198 252 -436 306 -530
98 -168 99 -170 99 -235 l-1 -65 -42 -26 c-109 -65 -104 -223 8 -286 l40 -23
-685 1 c-591 1 -676 3 -620 14 162 32 310 115 426 238 106 113 169 232 201
380 21 101 13 287 -17 382 -95 299 -333 506 -639 556 l-71 12 0 48 0 49 349 0
349 0 45 -77z m657 -400 c0 -284 -4 -473 -9 -468 -5 6 -127 215 -271 465 -145
250 -267 461 -273 468 -7 9 48 12 272 12 l281 0 0 -477z m-1490 19 c0 -158 -4
-262 -9 -256 -5 5 -43 94 -86 198 -42 104 -83 201 -91 215 -22 38 -15 20 90
-237 53 -128 96 -242 96 -252 0 -17 7 -20 45 -20 44 0 45 1 46 33 0 17 0 158
-1 313 l-1 281 53 -8 c91 -14 97 -17 92 -41 l-5 -23 10 22 10 23 48 -20 c111
-47 221 -124 279 -197 l31 -39 -41 -29 c-66 -46 -420 -316 -436 -333 -31 -31
18 4 239 172 124 93 231 169 239 170 32 2 111 -166 128 -273 l6 -40 -38 -4
-39 -4 43 -1 42 -2 0 -67 c0 -53 -17 -193 -24 -193 0 0 -23 7 -50 15 -27 8
-54 15 -60 14 -6 -1 14 -9 44 -18 49 -15 55 -20 53 -43 -2 -30 -56 -144 -87
-183 l-22 -28 -195 154 c-228 182 -269 213 -269 207 0 -3 103 -87 230 -188
l229 -183 -30 -35 c-149 -169 -384 -260 -602 -232 -43 5 -82 12 -87 15 -4 3 1
39 12 81 10 42 17 78 15 81 -3 2 -12 -29 -22 -69 -10 -40 -21 -77 -25 -81 -10
-11 -130 36 -193 76 -30 20 -83 62 -117 94 l-63 59 224 174 c214 165 275 215
239 194 -8 -4 -116 -86 -240 -182 l-224 -174 -19 24 c-34 42 -88 159 -107 232
l-18 71 22 7 c21 6 21 6 -1 7 -22 1 -23 5 -23 91 0 49 5 111 11 138 l10 50 96
-25 c52 -13 97 -22 100 -20 2 3 -39 15 -91 28 -76 18 -96 27 -96 40 0 26 92
200 111 212 16 10 98 -49 422 -303 42 -34 77 -59 77 -56 0 6 -110 94 -319 255
-88 69 -161 128 -161 131 0 14 110 110 170 149 81 53 100 58 117 35 13 -17 13
-17 11 5 -3 21 3 26 42 38 54 16 142 31 153 26 4 -2 7 -124 7 -271z m-4505
-237 c31 -215 94 -456 170 -656 29 -76 34 -98 26 -117 -6 -13 -11 -39 -11 -59
0 -20 -7 -63 -16 -95 l-17 -58 -87 0 -88 0 -10 29 c-9 24 -20 32 -68 46 -36
10 -89 39 -143 78 -48 34 -97 69 -109 77 l-23 15 81 190 c45 105 120 286 166
402 92 231 106 265 110 260 2 -1 10 -52 19 -112z m6079 -781 c22 -21 20 -50
-4 -74 -24 -24 -47 -25 -72 -3 -20 18 -24 63 -6 81 17 17 64 15 82 -4z"/>
<path d="M10166 3354 c-4 -14 -5 -28 -3 -31 3 -2 8 8 11 23 4 14 5 28 3 31 -3
2 -8 -8 -11 -23z"/>
<path d="M10146 3284 c-4 -14 -5 -28 -3 -31 3 -2 8 8 11 23 4 14 5 28 3 31 -3
2 -8 -8 -11 -23z"/>
<path d="M10126 3214 c-4 -14 -5 -28 -3 -31 3 -2 8 8 11 23 4 14 5 28 3 31 -3
2 -8 -8 -11 -23z"/>
<path d="M10101 3124 c-7 -25 -10 -48 -8 -51 3 -2 10 17 16 43 7 25 10 48 8
51 -3 2 -10 -17 -16 -43z"/>
<path d="M10066 2999 c-10 -33 -16 -63 -13 -65 2 -2 11 24 21 57 9 34 15 63
13 66 -2 2 -12 -24 -21 -58z"/>
<path d="M9535 2881 c11 -4 36 -11 55 -15 24 -4 29 -3 15 3 -11 4 -36 11 -55
15 -24 4 -29 3 -15 -3z"/>
<path d="M9645 2851 c11 -4 36 -11 55 -15 24 -4 29 -3 15 3 -11 4 -36 11 -55
15 -24 4 -29 3 -15 -3z"/>
<path d="M9755 2821 c11 -4 36 -11 55 -15 24 -4 29 -3 15 3 -11 4 -36 11 -55
15 -24 4 -29 3 -15 -3z"/>
<path d="M10558 2823 c12 -2 30 -2 40 0 9 3 -1 5 -23 4 -22 0 -30 -2 -17 -4z"/>
<path d="M10478 2813 c12 -2 30 -2 40 0 9 3 -1 5 -23 4 -22 0 -30 -2 -17 -4z"/>
<path d="M10335 2800 l-40 -7 35 -1 c19 0 55 3 80 7 l45 8 -40 0 c-22 0 -58
-3 -80 -7z"/>
<path d="M9865 2790 c27 -12 43 -12 25 0 -8 5 -22 9 -30 9 -10 0 -8 -3 5 -9z"/>
<path d="M10238 2783 c12 -2 30 -2 40 0 9 3 -1 5 -23 4 -22 0 -30 -2 -17 -4z"/>
<path d="M10163 2773 c9 -2 25 -2 35 0 9 3 1 5 -18 5 -19 0 -27 -2 -17 -5z"/>
<path d="M10103 2763 c9 -2 23 -2 30 0 6 3 -1 5 -18 5 -16 0 -22 -2 -12 -5z"/>
<path d="M9858 2733 c6 -2 18 -2 25 0 6 3 1 5 -13 5 -14 0 -19 -2 -12 -5z"/>
<path d="M9793 2723 c9 -2 25 -2 35 0 9 3 1 5 -18 5 -19 0 -27 -2 -17 -5z"/>
<path d="M10155 2710 c33 -11 74 -22 90 -24 17 -3 3 3 -30 14 -33 11 -73 22
-90 24 -16 3 -3 -3 30 -14z"/>
<path d="M9718 2713 c12 -2 30 -2 40 0 9 3 -1 5 -23 4 -22 0 -30 -2 -17 -4z"/>
<path d="M9643 2703 c9 -2 25 -2 35 0 9 3 1 5 -18 5 -19 0 -27 -2 -17 -5z"/>
<path d="M9573 2693 c9 -2 25 -2 35 0 9 3 1 5 -18 5 -19 0 -27 -2 -17 -5z"/>
<path d="M9503 2683 c9 -2 25 -2 35 0 9 3 1 5 -18 5 -19 0 -27 -2 -17 -5z"/>
<path d="M9423 2673 c9 -2 25 -2 35 0 9 3 1 5 -18 5 -19 0 -27 -2 -17 -5z"/>
<path d="M10348 2655 c41 -13 88 -26 105 -29 18 -3 -1 6 -41 19 -41 13 -88 26
-105 29 -18 3 1 -6 41 -19z"/>
<path d="M9353 2663 c9 -2 25 -2 35 0 9 3 1 5 -18 5 -19 0 -27 -2 -17 -5z"/>
<path d="M10043 2638 c3 -7 24 -61 48 -121 23 -59 44 -105 46 -103 5 5 -87
236 -94 236 -3 0 -3 -6 0 -12z"/>
<path d="M10505 2610 c11 -5 27 -9 35 -9 9 0 8 4 -5 9 -11 5 -27 9 -35 9 -9 0
-8 -4 5 -9z"/>
<path d="M9951 2584 c0 -11 3 -14 6 -6 3 7 2 16 -1 19 -3 4 -6 -2 -5 -13z"/>
<path d="M9936 2534 c-4 -14 -5 -28 -3 -31 3 -2 8 8 11 23 4 14 5 28 3 31 -3
2 -8 -8 -11 -23z"/>
<path d="M9891 2369 c-18 -67 -30 -123 -28 -125 2 -2 18 50 36 117 18 67 30
123 28 125 -2 2 -18 -50 -36 -117z"/>
<path d="M10145 2383 c4 -10 16 -42 27 -71 12 -29 23 -51 25 -48 5 5 -47 136
-54 136 -3 0 -2 -8 2 -17z"/>
<path d="M10200 2247 c0 -13 53 -138 56 -134 2 2 -8 33 -22 68 -25 62 -34 79
-34 66z"/>
<path d="M9270 5741 c0 -7 -29 -11 -82 -11 l-83 -1 24 -19 c20 -18 39 -20 157
-20 73 0 135 4 139 9 8 14 -22 27 -75 34 -25 3 -54 9 -63 13 -10 3 -17 1 -17
-5z"/>
<path d="M9875 5731 l-50 -6 26 -18 c22 -15 44 -17 120 -15 93 3 94 3 64 19
-37 20 -95 27 -160 20z"/>
</g>
</svg>
